<svg xmlns="http://www.w3.org/2000/svg" version="1.1" xmlns:xlink="http://www.w3.org/1999/xlink" xmlns:svgjs="http://svgjs.dev/svgjs" width="1000" height="143" viewBox="0 0 1000 143"><g transform="matrix(1,0,0,1,-0.6060606060606233,0.5490345781857968)"><svg viewBox="0 0 396 57" data-background-color="#232526" preserveAspectRatio="xMidYMid meet" height="143" width="1000" xmlns="http://www.w3.org/2000/svg" xmlns:xlink="http://www.w3.org/1999/xlink"><g id="tight-bounds" transform="matrix(1,0,0,1,0.2400000000000091,-0.21884595074538993)"><svg viewBox="0 0 395.52 57.43769190149081" height="57.43769190149081" width="395.52"><g><svg viewBox="0 0 487.21231923186065 70.75331483275282" height="57.43769190149081" width="395.52"><g><rect width="3.3579763561961307" height="68.60306937473861" x="404.31051402145584" y="1.0751227290071057" fill="#75d4e5" opacity="1" stroke-width="0" stroke="transparent" fill-opacity="1" class="rect-o-0" data-fill-palette-color="primary" rx="1%" id="o-0" data-palette-color="#75d4e5"></rect></g><g transform="matrix(1,0,0,1,0,1.2457771304367995)"><svg viewBox="0 0 395.52 68.26176057187922" height="68.26176057187922" width="395.52"><g><svg viewBox="0 0 395.52 68.26176057187922" height="68.26176057187922" width="395.52"><g><svg viewBox="0 0 395.52 37.23594953089615" height="37.23594953089615" width="395.52"><g transform="matrix(1,0,0,1,0,0)"><svg width="395.52" viewBox="2.799999952316284 -35.52000045776367 386.3500061035156 36.369998931884766" height="37.23594953089615" data-palette-color="#75d4e5"><g class="undefined-text-0" data-fill-palette-color="primary" id="text-0"><path d="M20.1-10.48L20.1-10.48Q20.1-12.3 19.39-13.36 18.68-14.43 17.39-14.88 16.1-15.33 14.38-15.33L14.38-15.33 11-15.33 11-5.98 14.03-5.98Q15.23-5.98 16.31-6.15 17.4-6.33 18.26-6.8 19.13-7.28 19.61-8.16 20.1-9.05 20.1-10.48ZM18.8-24.98L18.8-24.98Q18.8-27.03 17.51-27.94 16.23-28.85 13.53-28.85L13.53-28.85 11-28.85 11-20.83 13.78-20.83Q16.43-20.83 17.61-21.8 18.8-22.78 18.8-24.98ZM28.55-10.15L28.55-10.15Q28.55-7.15 27.4-5.18 26.25-3.2 24.25-2.08 22.25-0.95 19.69-0.48 17.13 0 14.3 0L14.3 0 2.8 0 2.8-34.65 13.78-34.65Q16.45-34.65 18.84-34.21 21.23-33.77 23.08-32.76 24.93-31.75 25.99-30.04 27.05-28.33 27.05-25.8L27.05-25.8Q27.05-23.73 26.18-22.21 25.3-20.7 23.85-19.74 22.4-18.78 20.7-18.35L20.7-18.35Q22.55-18.05 24.36-17.19 26.18-16.32 27.36-14.63 28.55-12.93 28.55-10.15ZM58.87-17.35L58.87-17.35Q58.87-11.85 57.3-7.76 55.72-3.68 52.64-1.41 49.55 0.85 45 0.85L45 0.85Q40.47 0.85 37.37-1.36 34.27-3.58 32.7-7.65 31.12-11.73 31.12-17.35L31.12-17.35Q31.12-22.85 32.7-26.93 34.27-31 37.37-33.26 40.47-35.52 45-35.52L45-35.52Q49.55-35.52 52.64-33.33 55.72-31.13 57.3-27.05 58.87-22.98 58.87-17.35ZM50.47-17.35L50.47-17.35Q50.47-23.75 49.2-26.65 47.92-29.55 45-29.55L45-29.55Q42.07-29.55 40.8-26.64 39.52-23.73 39.52-17.35L39.52-17.35Q39.52-10.95 40.82-8.05 42.12-5.15 45-5.15L45-5.15Q48-5.15 49.23-8.09 50.47-11.03 50.47-17.35ZM70.02-18.4L60.95-34.65 69.77-34.65 75-23.53 80.34-34.65 89-34.65 79.8-18.75 89.84 0 81.02 0 74.9-13.23 68.87 0 60.17 0 70.02-18.4ZM116.47-28.8L102.84-28.8 102.84-20.48 114.84-20.48 114.84-14.73 102.84-14.73 102.84-5.88 117.32-5.88 117.32 0 94.64 0 94.64-34.65 117.29-34.65 116.47-28.8ZM148.06-24.13L148.06-24.13Q148.06-21.65 147.14-19.8 146.22-17.95 144.64-16.68 143.06-15.4 141.12-14.63L141.12-14.63 150.19 0 140.92 0 133.42-13.25 131.09-13.25 131.09 0 122.89 0 122.89-34.65 133.79-34.65Q140.87-34.65 144.47-32.08 148.06-29.5 148.06-24.13ZM139.62-24.13L139.62-24.13Q139.62-26.63 138.15-27.76 136.69-28.9 133.81-28.9L133.81-28.9 131.09-28.9 131.09-18.88 134.14-18.88Q136.81-18.88 138.22-20.13 139.62-21.38 139.62-24.13ZM175.81-12.58L154.16-12.58 154.16-18.73 175.81-18.73 175.81-12.58ZM197.89-35.52L197.89-35.52Q201.61-35.52 204.22-34.54 206.84-33.55 209.01-31.75L209.01-31.75 204.99-26.9Q203.56-28.08 201.84-28.76 200.11-29.45 198.09-29.45L198.09-29.45Q195.91-29.45 194.11-28.21 192.31-26.98 191.24-24.31 190.16-21.65 190.16-17.4L190.16-17.4Q190.16-13.23 191.2-10.59 192.24-7.95 194.06-6.71 195.89-5.48 198.24-5.48L198.24-5.48Q200.84-5.48 202.56-6.45 204.29-7.43 205.74-8.58L205.74-8.58 209.46-3.83Q207.51-1.9 204.66-0.53 201.81 0.85 197.79 0.85L197.79 0.85Q193.09 0.85 189.45-1.24 185.81-3.33 183.75-7.39 181.69-11.45 181.69-17.4L181.69-17.4Q181.69-23.2 183.82-27.25 185.96-31.3 189.64-33.41 193.31-35.52 197.89-35.52ZM238.86-17.35L238.86-17.35Q238.86-11.85 237.28-7.76 235.71-3.68 232.62-1.41 229.53 0.85 224.98 0.85L224.98 0.85Q220.46 0.85 217.36-1.36 214.26-3.58 212.68-7.65 211.11-11.73 211.11-17.35L211.11-17.35Q211.11-22.85 212.68-26.93 214.26-31 217.36-33.26 220.46-35.52 224.98-35.52L224.98-35.52Q229.53-35.52 232.62-33.33 235.71-31.13 237.28-27.05 238.86-22.98 238.86-17.35ZM230.46-17.35L230.46-17.35Q230.46-23.75 229.18-26.65 227.91-29.55 224.98-29.55L224.98-29.55Q222.06-29.55 220.78-26.64 219.51-23.73 219.51-17.35L219.51-17.35Q219.51-10.95 220.81-8.05 222.11-5.15 224.98-5.15L224.98-5.15Q227.98-5.15 229.22-8.09 230.46-11.03 230.46-17.35ZM267.38 0L257.43 0 248.31-27.88Q248.48-26.75 248.69-25.16 248.91-23.58 249.11-21.64 249.31-19.7 249.43-17.53 249.56-15.35 249.56-13.08L249.56-13.08 249.56 0 242.58 0 242.58-34.65 252.81-34.65 261.66-6.93Q261.38-8.5 261.09-10.69 260.81-12.88 260.61-15.58 260.41-18.28 260.41-21.38L260.41-21.38 260.41-34.65 267.38-34.65 267.38 0ZM297.38 0L287.43 0 278.3-27.88Q278.48-26.75 278.69-25.16 278.9-23.58 279.1-21.64 279.3-19.7 279.43-17.53 279.55-15.35 279.55-13.08L279.55-13.08 279.55 0 272.58 0 272.58-34.65 282.8-34.65 291.65-6.93Q291.38-8.5 291.09-10.69 290.8-12.88 290.6-15.58 290.4-18.28 290.4-21.38L290.4-21.38 290.4-34.65 297.38-34.65 297.38 0ZM326.45-28.8L312.83-28.8 312.83-20.48 324.83-20.48 324.83-14.73 312.83-14.73 312.83-5.88 327.3-5.88 327.3 0 304.63 0 304.63-34.65 327.28-34.65 326.45-28.8ZM347.87-35.52L347.87-35.52Q351.6-35.52 354.21-34.54 356.82-33.55 359-31.75L359-31.75 354.97-26.9Q353.55-28.08 351.82-28.76 350.1-29.45 348.07-29.45L348.07-29.45Q345.9-29.45 344.1-28.21 342.3-26.98 341.22-24.31 340.15-21.65 340.15-17.4L340.15-17.4Q340.15-13.23 341.19-10.59 342.22-7.95 344.05-6.71 345.87-5.48 348.22-5.48L348.22-5.48Q350.82-5.48 352.55-6.45 354.27-7.43 355.72-8.58L355.72-8.58 359.45-3.83Q357.5-1.9 354.65-0.53 351.8 0.85 347.77 0.85L347.77 0.85Q343.07 0.85 339.44-1.24 335.8-3.33 333.74-7.39 331.67-11.45 331.67-17.4L331.67-17.4Q331.67-23.2 333.81-27.25 335.95-31.3 339.62-33.41 343.3-35.52 347.87-35.52ZM388.3-28.38L379.02-28.38 379.02 0 370.82 0 370.82-28.38 361.1-28.38 361.1-34.65 389.15-34.65 388.3-28.38Z" fill="#75d4e5" data-fill-palette-color="primary"></path></g></svg></g></svg></g><g transform="matrix(1,0,0,1,0,46.02646355235199)"><svg viewBox="0 0 395.52 22.235297019527234" height="22.235297019527234" width="395.52"><g transform="matrix(1,0,0,1,0,0)"><svg width="395.52" viewBox="0.5099999904632568 -40.47999954223633 950.1400146484375 53.41999816894531" height="22.235297019527234" data-palette-color="#e5f5f6"><path d="M0.51 0L18.43-38.16 26.64-38.16 45.09 0 36.96 0 33.91-6.42 11.62-6.42 8.67 0 0.51 0ZM14.58-12.79L30.86-12.79 22.61-30.13 14.58-12.79ZM50.31 0L50.31-28.81 57.54-28.81 57.54-26.37Q60.25-28.03 62.83-28.67 65.4-29.32 67.87-29.32L67.87-29.32Q71.31-29.32 74.19-28.22 77.07-27.12 79.12-24.9L79.12-24.9Q80.71-26.12 82.25-26.97 83.79-27.81 85.32-28.33 86.86-28.86 88.45-29.09 90.04-29.32 91.72-29.32L91.72-29.32Q95.26-29.32 98.14-28.36 101.02-27.39 103.06-25.49 105.1-23.58 106.21-20.74 107.32-17.9 107.32-14.16L107.32-14.16 107.32 0 100.12 0 100.12-12.99Q100.12-15.36 99.45-17.22 98.78-19.09 97.57-20.37 96.36-21.66 94.69-22.33 93.02-23 91.01-23L91.01-23Q89.91-23 88.77-22.79 87.62-22.58 86.53-22.14 85.45-21.7 84.49-21.03 83.54-20.36 82.83-19.46L82.83-19.46 82.83 0 75.63 0 75.63-12.99Q75.63-15.36 74.96-17.22 74.29-19.09 73.08-20.37 71.87-21.66 70.18-22.33 68.48-23 66.45-23L66.45-23Q65.21-23 63.95-22.74 62.69-22.49 61.53-22.02 60.37-21.56 59.36-20.9 58.35-20.24 57.54-19.41L57.54-19.41 57.54 0 50.31 0ZM115.03-9.08L115.03-9.08Q115.03-11.16 115.94-12.87 116.84-14.58 118.65-15.81 120.45-17.04 123.15-17.71 125.85-18.38 129.44-18.38L129.44-18.38Q132.1-18.38 135.04-17.99 137.98-17.6 141.11-16.8L141.11-16.8Q140.99-18.16 140.28-19.32 139.57-20.48 138.31-21.33 137.06-22.17 135.29-22.63 133.52-23.1 131.27-23.1L131.27-23.1Q130.05-23.1 128.58-22.95 127.12-22.8 125.56-22.51 123.99-22.22 122.47-21.78 120.94-21.34 119.62-20.73L119.62-20.73 117.43-26.66Q119.06-27.25 120.93-27.73 122.8-28.22 124.75-28.58 126.7-28.93 128.66-29.13 130.61-29.32 132.44-29.32L132.44-29.32Q140.52-29.32 144.45-25.2 148.38-21.07 148.38-12.55L148.38-12.55 148.38 0 141.16 0 141.16-2.71Q140.03-2.05 138.7-1.46 137.37-0.88 135.81-0.44 134.25 0 132.45 0.26 130.66 0.51 128.66 0.51L128.66 0.51Q125.29 0.51 122.74-0.22 120.19-0.95 118.48-2.25 116.77-3.54 115.9-5.29 115.03-7.03 115.03-9.08ZM122.65-9.33L122.65-9.33Q122.65-8.62 123.02-7.97 123.38-7.32 124.19-6.82 125-6.32 126.25-6.02 127.51-5.71 129.29-5.71L129.29-5.71Q131.2-5.71 132.98-6.05 134.76-6.4 136.3-6.96 137.84-7.52 139.08-8.25 140.33-8.98 141.16-9.77L141.16-9.77 141.16-11.04Q139.5-11.5 137.87-11.82 136.25-12.13 134.77-12.32 133.3-12.5 131.99-12.57 130.68-12.65 129.71-12.65L129.71-12.65Q127.68-12.65 126.34-12.38 125-12.11 124.16-11.66 123.33-11.21 122.99-10.6 122.65-9.99 122.65-9.33ZM162.27 0L162.27-23.39 155.31-23.39 155.31-28.81 162.27-28.81 162.27-37.77 169.5-37.77 169.5-28.81 176.46-28.81 176.46-23.39 169.5-23.39 169.5 0 162.27 0ZM181.51-14.5L181.51-14.5Q181.51-17.43 182.7-20.1 183.9-22.78 186.15-24.83 188.39-26.88 191.65-28.1 194.91-29.32 199.06-29.32L199.06-29.32Q203.19-29.32 206.5-28.09 209.8-26.86 212.11-24.71 214.42-22.56 215.65-19.65 216.88-16.75 216.88-13.43L216.88-13.43Q216.88-13.01 216.87-12.54 216.86-12.06 216.81-11.67L216.81-11.67 189.57-11.67Q190.03-10.38 191.07-9.3 192.1-8.23 193.67-7.45 195.23-6.67 197.28-6.24 199.33-5.81 201.82-5.81L201.82-5.81Q204.31-5.81 206.78-6.34 209.24-6.86 211.49-7.67L211.49-7.67 213.93-2.15Q212.51-1.49 211.06-0.99 209.61-0.49 208.03-0.16 206.46 0.17 204.74 0.34 203.02 0.51 201.11 0.51L201.11 0.51Q196.25 0.51 192.59-0.66 188.93-1.83 186.46-3.86 184-5.88 182.75-8.62 181.51-11.35 181.51-14.5ZM189.57-17.31L209.22-17.31Q208.83-18.51 208.01-19.54 207.19-20.58 205.97-21.35 204.75-22.12 203.14-22.56 201.53-23 199.6-23L199.6-23Q197.55-23 195.86-22.53 194.18-22.07 192.91-21.29 191.64-20.51 190.8-19.48 189.96-18.46 189.57-17.31L189.57-17.31ZM224.65-13.75L224.65-28.83 231.85-28.83 231.85-14.77Q231.85-12.77 232.29-11.12 232.73-9.47 233.79-8.3 234.85-7.13 236.62-6.48 238.39-5.83 241.03-5.83L241.03-5.83Q242.27-5.83 243.55-6.1 244.84-6.37 246.01-6.85 247.18-7.32 248.19-7.98 249.21-8.64 249.94-9.42L249.94-9.42 249.94-28.83 257.17-28.83 257.17 0 249.94 0 249.94-2.47Q247.28-0.88 244.59-0.2 241.91 0.49 239.49 0.49L239.49 0.49Q235.53 0.49 232.71-0.46 229.89-1.42 228.1-3.23 226.31-5.05 225.48-7.7 224.65-10.35 224.65-13.75L224.65-13.75ZM266.34 0L266.34-28.81 273.57-28.81 273.57-24.66Q275.96-26.44 278.62-27.73 281.28-29.03 283.92-29.71L283.92-29.71 286.04-23.1Q281.87-22.68 278.71-21.23 275.55-19.78 273.57-17.14L273.57-17.14 273.57 0 266.34 0ZM308.92 0L308.92-38.16 329.3-38.16Q333.04-38.16 335.81-37.37 338.58-36.57 340.41-35.18 342.24-33.79 343.13-31.87 344.02-29.96 344.02-27.73L344.02-27.73Q344.02-24.1 341.73-21.36L341.73-21.36Q344.36-19.8 345.66-17.31 346.95-14.82 346.95-11.65L346.95-11.65Q346.95-8.98 346.06-6.84 345.17-4.69 343.35-3.16 341.53-1.64 338.76-0.82 335.99 0 332.23 0L332.23 0 308.92 0ZM316.65-23.51L332.28-23.51Q333.28-23.51 334.23-23.44L334.23-23.44Q335.87-25 335.87-27L335.87-27Q335.87-29.08 334.25-30.21 332.62-31.35 329.5-31.35L329.5-31.35 316.65-31.35 316.65-23.51ZM316.65-6.74L332.43-6.74Q335.55-6.74 337.17-8.08 338.8-9.42 338.8-11.87L338.8-11.87Q338.8-14.31 337.17-15.67 335.55-17.04 332.43-17.04L332.43-17.04 316.65-17.04 316.65-6.74ZM352.15-14.4L352.15-14.4Q352.15-17.5 353.41-20.21 354.67-22.92 357-24.95 359.33-26.98 362.64-28.15 365.94-29.32 370.07-29.32L370.07-29.32Q374.2-29.32 377.5-28.15 380.81-26.98 383.14-24.95 385.48-22.92 386.73-20.21 387.99-17.5 387.99-14.4L387.99-14.4Q387.99-11.3 386.73-8.59 385.48-5.88 383.14-3.86 380.81-1.83 377.5-0.66 374.2 0.51 370.07 0.51L370.07 0.51Q365.94 0.51 362.64-0.66 359.33-1.83 357-3.86 354.67-5.88 353.41-8.59 352.15-11.3 352.15-14.4ZM359.74-14.4L359.74-14.4Q359.74-12.67 360.44-11.12 361.13-9.57 362.47-8.39 363.8-7.2 365.71-6.51 367.63-5.81 370.07-5.81L370.07-5.81Q372.51-5.81 374.43-6.51 376.34-7.2 377.68-8.39 379.01-9.57 379.7-11.12 380.4-12.67 380.4-14.4L380.4-14.4Q380.4-16.14 379.7-17.7 379.01-19.26 377.68-20.45 376.34-21.63 374.43-22.33 372.51-23.02 370.07-23.02L370.07-23.02Q367.63-23.02 365.71-22.33 363.8-21.63 362.47-20.45 361.13-19.26 360.44-17.7 359.74-16.14 359.74-14.4ZM391.28 0L402.76-14.4 390.84-28.83 400.07-28.83 407.3-20.04 414.16-28.83 423.17-28.83 411.96-14.43 423.88 0 414.65 0 407.2-9.01 400.29 0 391.28 0ZM427.12-14.5L427.12-14.5Q427.12-17.43 428.32-20.1 429.51-22.78 431.76-24.83 434.01-26.88 437.26-28.1 440.52-29.32 444.67-29.32L444.67-29.32Q448.8-29.32 452.11-28.09 455.42-26.86 457.72-24.71 460.03-22.56 461.26-19.65 462.5-16.75 462.5-13.43L462.5-13.43Q462.5-13.01 462.48-12.54 462.47-12.06 462.42-11.67L462.42-11.67 435.18-11.67Q435.64-10.38 436.68-9.3 437.72-8.23 439.28-7.45 440.84-6.67 442.89-6.24 444.94-5.81 447.43-5.81L447.43-5.81Q449.92-5.81 452.39-6.34 454.86-6.86 457.1-7.67L457.1-7.67 459.54-2.15Q458.13-1.49 456.67-0.99 455.22-0.49 453.65-0.16 452.07 0.17 450.35 0.34 448.63 0.51 446.73 0.51L446.73 0.51Q441.87 0.51 438.2-0.66 434.54-1.83 432.08-3.86 429.61-5.88 428.37-8.62 427.12-11.35 427.12-14.5ZM435.18-17.31L454.83-17.31Q454.44-18.51 453.62-19.54 452.8-20.58 451.58-21.35 450.36-22.12 448.75-22.56 447.14-23 445.21-23L445.21-23Q443.16-23 441.48-22.53 439.79-22.07 438.52-21.29 437.25-20.51 436.41-19.48 435.57-18.46 435.18-17.31L435.18-17.31ZM470.26 0L470.26-28.81 477.48-28.81 477.48-24.66Q479.88-26.44 482.54-27.73 485.2-29.03 487.84-29.71L487.84-29.71 489.96-23.1Q485.79-22.68 482.62-21.23 479.46-19.78 477.48-17.14L477.48-17.14 477.48 0 470.26 0ZM512.86 0L512.86-38.16 520.59-38.16 534.46-24.24 548.33-38.16 556.07-38.16 556.07 0 548.33 0 548.33-27.44 534.46-14.09 520.59-27.44 520.59 0 512.86 0ZM564.66-9.08L564.66-9.08Q564.66-11.16 565.56-12.87 566.47-14.58 568.27-15.81 570.08-17.04 572.78-17.71 575.48-18.38 579.06-18.38L579.06-18.38Q581.73-18.38 584.67-17.99 587.61-17.6 590.73-16.8L590.73-16.8Q590.61-18.16 589.9-19.32 589.2-20.48 587.94-21.33 586.68-22.17 584.91-22.63 583.14-23.1 580.9-23.1L580.9-23.1Q579.67-23.1 578.21-22.95 576.74-22.8 575.18-22.51 573.62-22.22 572.09-21.78 570.57-21.34 569.25-20.73L569.25-20.73 567.05-26.66Q568.69-27.25 570.56-27.73 572.42-28.22 574.38-28.58 576.33-28.93 578.28-29.13 580.24-29.32 582.07-29.32L582.07-29.32Q590.15-29.32 594.08-25.2 598.01-21.07 598.01-12.55L598.01-12.55 598.01 0 590.78 0 590.78-2.71Q589.66-2.05 588.33-1.46 587-0.88 585.44-0.44 583.87 0 582.08 0.26 580.28 0.51 578.28 0.51L578.28 0.51Q574.91 0.51 572.36-0.22 569.81-0.95 568.1-2.25 566.39-3.54 565.53-5.29 564.66-7.03 564.66-9.08ZM572.28-9.33L572.28-9.33Q572.28-8.62 572.64-7.97 573.01-7.32 573.82-6.82 574.62-6.32 575.88-6.02 577.14-5.71 578.92-5.71L578.92-5.71Q580.82-5.71 582.6-6.05 584.39-6.4 585.92-6.96 587.46-7.52 588.71-8.25 589.95-8.98 590.78-9.77L590.78-9.77 590.78-11.04Q589.12-11.5 587.5-11.82 585.88-12.13 584.4-12.32 582.92-12.5 581.62-12.57 580.31-12.65 579.33-12.65L579.33-12.65Q577.31-12.65 575.96-12.38 574.62-12.11 573.79-11.66 572.96-11.21 572.62-10.6 572.28-9.99 572.28-9.33ZM611.9 0L611.9-23.39 604.94-23.39 604.94-28.81 611.9-28.81 611.9-37.77 619.13-37.77 619.13-28.81 626.08-28.81 626.08-23.39 619.13-23.39 619.13 0 611.9 0ZM630.77-14.33L630.77-14.33Q630.77-17.5 631.93-20.25 633.09-23 635.32-25.01 637.56-27.03 640.79-28.17 644.02-29.32 648.18-29.32L648.18-29.32Q649.98-29.32 651.81-29.1 653.64-28.88 655.34-28.48 657.04-28.08 658.53-27.53 660.02-26.98 661.11-26.32L661.11-26.32 657.77-20.87Q655.4-21.97 653.29-22.49 651.18-23 649.01-23L649.01-23Q646.52-23 644.54-22.35 642.56-21.7 641.18-20.54 639.8-19.38 639.08-17.81 638.36-16.24 638.36-14.38L638.36-14.38Q638.36-12.52 639.13-10.95 639.9-9.38 641.3-8.24 642.71-7.1 644.7-6.46 646.69-5.81 649.13-5.81L649.13-5.81Q651.81-5.81 654.19-6.57 656.57-7.32 658.62-8.59L658.62-8.59 661.97-3.15Q660.68-2.37 659.16-1.7 657.65-1.03 655.93-0.54 654.21-0.05 652.31 0.23 650.42 0.51 648.39 0.51L648.39 0.51Q644.27 0.51 641-0.61 637.73-1.73 635.46-3.72 633.19-5.71 631.98-8.42 630.77-11.13 630.77-14.33ZM669.75 0L669.75-40.48 676.98-40.48 676.98-26.61Q679.25-27.86 682.05-28.59 684.84-29.32 687.92-29.32L687.92-29.32Q691.48-29.32 694.33-28.27 697.17-27.22 699.15-25.26 701.13-23.29 702.19-20.48 703.25-17.68 703.25-14.16L703.25-14.16 703.25 0 696.05 0 696.05-13.87Q696.05-15.92 695.39-17.61 694.73-19.31 693.46-20.53 692.19-21.75 690.37-22.42 688.55-23.1 686.26-23.1L686.26-23.1Q683.5-23.1 681.13-22.22 678.76-21.34 676.98-20L676.98-20 676.98 0 669.75 0ZM715.14-32.74L715.14-32.74Q714.06-32.74 713.2-33.04 712.33-33.35 711.72-33.87 711.11-34.4 710.78-35.1 710.45-35.79 710.45-36.57L710.45-36.57Q710.45-37.38 710.78-38.07 711.11-38.77 711.72-39.28 712.33-39.79 713.2-40.1 714.06-40.41 715.14-40.41L715.14-40.41Q716.24-40.41 717.1-40.1 717.97-39.79 718.58-39.28 719.19-38.77 719.52-38.07 719.85-37.38 719.85-36.57L719.85-36.57Q719.85-35.79 719.52-35.1 719.19-34.4 718.58-33.87 717.97-33.35 717.1-33.04 716.24-32.74 715.14-32.74ZM711.52 0L711.52-28.81 718.75-28.81 718.75 0 711.52 0ZM728 0L728-28.81 735.23-28.81 735.23-26.37Q738.11-28 740.73-28.66 743.36-29.32 745.87-29.32L745.87-29.32Q749.17-29.32 751.98-28.36 754.78-27.39 756.83-25.49 758.89-23.58 760.05-20.74 761.2-17.9 761.2-14.16L761.2-14.16 761.2 0 754 0 754-12.99Q754-15.36 753.33-17.22 752.66-19.09 751.4-20.37 750.15-21.66 748.35-22.33 746.56-23 744.33-23L744.33-23Q743.16-23 741.93-22.75 740.7-22.51 739.51-22.06 738.33-21.61 737.23-20.94 736.13-20.26 735.23-19.41L735.23-19.41 735.23 0 728 0ZM771.9 10.99L774.58 4.88Q775.95 5.37 777.36 5.7 778.78 6.03 780.11 6.24 781.44 6.45 782.66 6.53 783.88 6.62 784.84 6.62L784.84 6.62Q787.72 6.62 789.85 5.92 791.99 5.22 793.42 4.05 794.84 2.88 795.55 1.33 796.26-0.22 796.26-1.95L796.26-1.95 796.26-3.2Q795.33-2.56 794.09-1.98 792.84-1.39 791.35-0.95 789.86-0.51 788.19-0.24 786.52 0.02 784.74 0.02L784.74 0.02Q781.2 0.02 778.19-1.04 775.19-2.1 772.99-4.02 770.8-5.93 769.56-8.62 768.33-11.3 768.33-14.58L768.33-14.58Q768.33-17.92 769.63-20.64 770.92-23.36 773.2-25.29 775.48-27.22 778.61-28.27 781.73-29.32 785.4-29.32L785.4-29.32Q786.96-29.32 788.5-29.13 790.04-28.93 791.44-28.59 792.84-28.25 794.08-27.77 795.31-27.29 796.26-26.73L796.26-26.73 796.26-28.81 803.49-28.81 803.49-3.3Q803.49 0.63 802.29 3.66 801.09 6.69 798.79 8.75 796.48 10.82 793.06 11.88 789.64 12.94 785.23 12.94L785.23 12.94Q783.64 12.94 781.93 12.81 780.22 12.67 778.5 12.41 776.78 12.16 775.11 11.8 773.43 11.45 771.9 10.99L771.9 10.99ZM775.92-14.65L775.92-14.65Q775.92-12.92 776.62-11.39 777.32-9.86 778.61-8.73 779.9-7.59 781.73-6.95 783.57-6.3 785.86-6.3L785.86-6.3Q787.35-6.3 788.83-6.58 790.3-6.86 791.66-7.37 793.01-7.89 794.2-8.62 795.38-9.35 796.26-10.25L796.26-10.25 796.26-19.75Q795.16-20.63 793.94-21.24 792.72-21.85 791.45-22.24 790.18-22.63 788.89-22.81 787.59-23 786.37-23L786.37-23Q783.88-23 781.94-22.34 780-21.68 778.67-20.54 777.34-19.41 776.63-17.9 775.92-16.38 775.92-14.65ZM824.31 0L842.23-38.16 850.43-38.16 868.89 0 860.76 0 857.71-6.42 835.42-6.42 832.46 0 824.31 0ZM838.37-12.79L854.65-12.79 846.4-30.13 838.37-12.79ZM880.95-2.08L880.95 11.77 873.72 11.77 873.72-28.81 880.95-28.81 880.95-26.1Q881.9-26.76 883.19-27.34 884.49-27.93 885.98-28.37 887.46-28.81 889.05-29.06 890.64-29.32 892.23-29.32L892.23-29.32Q895.89-29.32 898.95-28.25 902.02-27.17 904.21-25.22 906.41-23.27 907.64-20.54 908.88-17.82 908.88-14.53L908.88-14.53Q908.88-11.08 907.58-8.31 906.29-5.54 904-3.58 901.72-1.61 898.59-0.55 895.45 0.51 891.79 0.51L891.79 0.51Q890.22 0.51 888.7 0.32 887.17 0.12 885.77-0.22 884.36-0.56 883.13-1.04 881.9-1.51 880.95-2.08L880.95-2.08ZM880.95-19.04L880.95-9.06Q882.04-8.18 883.27-7.57 884.49-6.96 885.76-6.57 887.02-6.18 888.32-5.99 889.61-5.81 890.83-5.81L890.83-5.81Q893.32-5.81 895.26-6.48 897.21-7.15 898.54-8.33 899.87-9.5 900.57-11.08 901.28-12.67 901.28-14.53L901.28-14.53Q901.28-16.26 900.59-17.8 899.89-19.34 898.59-20.5 897.28-21.66 895.44-22.33 893.59-23 891.3-23L891.3-23Q889.83-23 888.37-22.72 886.9-22.44 885.55-21.92 884.19-21.41 883.01-20.68 881.82-19.95 880.95-19.04L880.95-19.04ZM922.72-2.08L922.72 11.77 915.49 11.77 915.49-28.81 922.72-28.81 922.72-26.1Q923.67-26.76 924.96-27.34 926.26-27.93 927.75-28.37 929.23-28.81 930.82-29.06 932.41-29.32 934-29.32L934-29.32Q937.66-29.32 940.72-28.25 943.79-27.17 945.98-25.22 948.18-23.27 949.41-20.54 950.65-17.82 950.65-14.53L950.65-14.53Q950.65-11.08 949.35-8.31 948.06-5.54 945.77-3.58 943.49-1.61 940.35-0.55 937.22 0.51 933.56 0.51L933.56 0.51Q931.99 0.51 930.47 0.32 928.94 0.12 927.54-0.22 926.13-0.56 924.9-1.04 923.67-1.51 922.72-2.08L922.72-2.08ZM922.72-19.04L922.72-9.06Q923.81-8.18 925.04-7.57 926.26-6.96 927.53-6.57 928.79-6.18 930.09-5.99 931.38-5.81 932.6-5.81L932.6-5.81Q935.09-5.81 937.03-6.48 938.98-7.15 940.31-8.33 941.64-9.5 942.34-11.08 943.05-12.67 943.05-14.53L943.05-14.53Q943.05-16.26 942.36-17.8 941.66-19.34 940.35-20.5 939.05-21.66 937.21-22.33 935.36-23 933.07-23L933.07-23Q931.6-23 930.14-22.72 928.67-22.44 927.32-21.92 925.96-21.41 924.78-20.68 923.59-19.95 922.72-19.04L922.72-19.04Z" opacity="1" transform="matrix(1,0,0,1,0,0)" fill="#e5f5f6" class="undefined-text-1" data-fill-palette-color="secondary" id="text-1"></path></svg></g></svg></g></svg></g></svg></g><g transform="matrix(1,0,0,1,416.4590043991078,0)"><svg viewBox="0 0 70.75331483275282 70.75331483275282" height="70.75331483275282" width="70.75331483275282"><g><svg xmlns="http://www.w3.org/2000/svg" xmlns:xlink="http://www.w3.org/1999/xlink" version="1.1" x="0" y="0" viewBox="56 56 400 400" enable-background="new 0 0 512 512" xml:space="preserve" height="70.75331483275282" width="70.75331483275282" class="icon-icon-0" data-fill-palette-color="accent" id="icon-0"><g fill="#4b4d4e" data-fill-palette-color="accent"><path d="M176 456H80c-13.234 0-24-10.766-24-24v-96c0-13.234 10.766-24 24-24h96c13.234 0 24 10.766 24 24v96C200 445.234 189.234 456 176 456zM80 328c-4.411 0-8 3.589-8 8v96c0 4.411 3.589 8 8 8h96c4.411 0 8-3.589 8-8v-96c0-4.411-3.589-8-8-8H80z" fill="#4b4d4e" data-fill-palette-color="accent"></path></g><g fill="#4b4d4e" data-fill-palette-color="accent"><path d="M432 200h-96c-13.234 0-24-10.766-24-24V80c0-13.234 10.766-24 24-24h96c13.234 0 24 10.766 24 24v96C456 189.234 445.234 200 432 200zM336 72c-4.411 0-8 3.589-8 8v96c0 4.411 3.589 8 8 8h96c4.411 0 8-3.589 8-8V80c0-4.411-3.589-8-8-8H336z" fill="#4b4d4e" data-fill-palette-color="accent"></path></g><g fill="#4b4d4e" data-fill-palette-color="accent"><path d="M224 392v-16c0.021 0 6.611-0.112 12.828-3.363C244.346 368.707 248 361.957 248 352V160c0-16.085 7.253-28.571 20.422-35.155C277.839 120.136 286.988 120 288 120l0.044 16c-0.066 0-6.655 0.112-12.873 3.363C267.654 143.293 264 150.043 264 160v192c0 16.085-7.253 28.571-20.422 35.155C234.161 391.864 225.012 392 224 392z" fill="#4b4d4e" data-fill-palette-color="accent"></path></g></svg></g></svg></g></svg></g><defs></defs></svg><rect width="395.52" height="57.43769190149081" fill="none" stroke="none" visibility="hidden"></rect></g></svg></g></svg>